<?xml version="1.0" encoding="UTF-8" standalone="no"?>
<!-- Generator: Adobe Illustrator 16.0.4, SVG Export Plug-In . SVG Version: 6.00 Build 0)  -->

<svg
   xmlns:dc="http://purl.org/dc/elements/1.1/"
   xmlns:cc="http://creativecommons.org/ns#"
   xmlns:rdf="http://www.w3.org/1999/02/22-rdf-syntax-ns#"
   xmlns:svg="http://www.w3.org/2000/svg"
   xmlns="http://www.w3.org/2000/svg"
   xmlns:xlink="http://www.w3.org/1999/xlink"
   xmlns:sodipodi="http://sodipodi.sourceforge.net/DTD/sodipodi-0.dtd"
   xmlns:inkscape="http://www.inkscape.org/namespaces/inkscape"
   version="1.1"
   id="Layer_1"
   x="0px"
   y="0px"
   width="270px"
   height="10px"
   viewBox="0 0 270 10"
   enable-background="new 0 0 270 10"
   xml:space="preserve"
   inkscape:version="0.91 r13725"
   sodipodi:docname="brand.svg"><metadata
     id="metadata4309"><rdf:RDF><cc:Work
         rdf:about=""><dc:format>image/svg+xml</dc:format><dc:type
           rdf:resource="http://purl.org/dc/dcmitype/StillImage" /><dc:title></dc:title></cc:Work></rdf:RDF></metadata><defs
     id="defs4307"><radialGradient
       inkscape:collect="always"
       xlink:href="#SVGID_1_"
       id="radialGradient3236"
       gradientUnits="userSpaceOnUse"
       gradientTransform="matrix(0.44026647,0,0,0.44026647,76.717647,-79.722621)"
       cx="158.74271"
       cy="246.67239"
       r="331.35379" /><radialGradient
       id="SVGID_1_"
       cx="158.74271"
       cy="246.67239"
       r="331.35379"
       gradientTransform="matrix(1.2721,0,0,1.2721,224.2356,-227.9715)"
       gradientUnits="userSpaceOnUse"><stop
         offset="0"
         style="stop-color:#B0CEE3"
         id="stop9" /><stop
         offset="0.2149"
         style="stop-color:#ABCBE0"
         id="stop11" /><stop
         offset="0.452"
         style="stop-color:#9EC0D8"
         id="stop13" /><stop
         offset="0.6997"
         style="stop-color:#88AFCA"
         id="stop15" /><stop
         offset="0.9533"
         style="stop-color:#6998B6"
         id="stop17" /><stop
         offset="1"
         style="stop-color:#6393B2"
         id="stop19" /></radialGradient><radialGradient
       inkscape:collect="always"
       xlink:href="#SVGID_2_"
       id="radialGradient3233"
       gradientUnits="userSpaceOnUse"
       gradientTransform="matrix(0.44026647,0,0,0.44026647,76.717647,-79.722621)"
       cx="155.8252"
       cy="249.9458"
       r="135.1593" /><radialGradient
       id="SVGID_2_"
       cx="155.8252"
       cy="249.9458"
       r="135.1593"
       gradientTransform="matrix(1.2721,0,0,1.2721,224.2356,-227.9715)"
       gradientUnits="userSpaceOnUse"><stop
         offset="0"
         style="stop-color:#B0CEE3"
         id="stop24" /><stop
         offset="1"
         style="stop-color:#6393B2"
         id="stop26" /></radialGradient><radialGradient
       inkscape:collect="always"
       xlink:href="#SVGID_3_"
       id="radialGradient3230"
       gradientUnits="userSpaceOnUse"
       gradientTransform="matrix(0.44026647,0,0,0.44026647,76.717647,-79.722621)"
       cx="155.7104"
       cy="250.14211"
       r="135.8074" /><radialGradient
       id="SVGID_3_"
       cx="155.7104"
       cy="250.14211"
       r="135.8074"
       gradientTransform="matrix(1.2721,0,0,1.2721,224.2356,-227.9715)"
       gradientUnits="userSpaceOnUse"><stop
         offset="0"
         style="stop-color:#B0CEE3"
         id="stop31" /><stop
         offset="1"
         style="stop-color:#6393B2"
         id="stop33" /></radialGradient><radialGradient
       inkscape:collect="always"
       xlink:href="#SVGID_4_"
       id="radialGradient3227"
       gradientUnits="userSpaceOnUse"
       gradientTransform="matrix(0.49574538,0,0,0.49574538,-47.863124,-34.985754)"
       cx="389.668"
       cy="131.65669"
       r="119.7181" /><radialGradient
       id="SVGID_4_"
       cx="389.668"
       cy="131.65669"
       r="119.7181"
       gradientTransform="matrix(1.4324,0,0,1.4324,-135.7264,-98.7094)"
       gradientUnits="userSpaceOnUse"><stop
         offset="0"
         style="stop-color:#B0CEE3"
         id="stop38" /><stop
         offset="1"
         style="stop-color:#6393B2"
         id="stop40" /></radialGradient><radialGradient
       inkscape:collect="always"
       xlink:href="#SVGID_5_"
       id="radialGradient3224"
       gradientUnits="userSpaceOnUse"
       gradientTransform="matrix(0.49574538,0,0,0.49574538,-47.863124,-34.985754)"
       cx="389.66989"
       cy="131.65669"
       r="119.7193" /><radialGradient
       id="SVGID_5_"
       cx="389.66989"
       cy="131.65669"
       r="119.7193"
       gradientTransform="matrix(1.4324,0,0,1.4324,-135.7264,-98.7094)"
       gradientUnits="userSpaceOnUse"><stop
         offset="0"
         style="stop-color:#B0CEE3"
         id="stop45" /><stop
         offset="1"
         style="stop-color:#6393B2"
         id="stop47" /></radialGradient><radialGradient
       inkscape:collect="always"
       xlink:href="#SVGID_6_"
       id="radialGradient3221"
       gradientUnits="userSpaceOnUse"
       gradientTransform="matrix(0.49574538,0,0,0.49574538,-47.863124,-34.985754)"
       cx="389.6748"
       cy="131.65669"
       r="119.7216" /><radialGradient
       id="SVGID_6_"
       cx="389.6748"
       cy="131.65669"
       r="119.7216"
       gradientTransform="matrix(1.4324,0,0,1.4324,-135.7264,-98.7094)"
       gradientUnits="userSpaceOnUse"><stop
         offset="0"
         style="stop-color:#B0CEE3"
         id="stop52" /><stop
         offset="1"
         style="stop-color:#6393B2"
         id="stop54" /></radialGradient><radialGradient
       inkscape:collect="always"
       xlink:href="#SVGID_7_"
       id="radialGradient3218"
       gradientUnits="userSpaceOnUse"
       gradientTransform="matrix(0.49574538,0,0,0.49574538,-47.863124,-34.985754)"
       cx="389.6738"
       cy="131.65581"
       r="119.7212" /><radialGradient
       id="SVGID_7_"
       cx="389.6738"
       cy="131.65581"
       r="119.7212"
       gradientTransform="matrix(1.4324,0,0,1.4324,-135.7264,-98.7094)"
       gradientUnits="userSpaceOnUse"><stop
         offset="0"
         style="stop-color:#B0CEE3"
         id="stop59" /><stop
         offset="1"
         style="stop-color:#6393B2"
         id="stop61" /></radialGradient><radialGradient
       inkscape:collect="always"
       xlink:href="#SVGID_8_"
       id="radialGradient3215"
       gradientUnits="userSpaceOnUse"
       gradientTransform="matrix(0.49574538,0,0,0.49574538,-47.863124,-34.985754)"
       cx="389.67679"
       cy="131.65669"
       r="119.7224" /><radialGradient
       id="SVGID_8_"
       cx="389.67679"
       cy="131.65669"
       r="119.7224"
       gradientTransform="matrix(1.4324,0,0,1.4324,-135.7264,-98.7094)"
       gradientUnits="userSpaceOnUse"><stop
         offset="0"
         style="stop-color:#B0CEE3"
         id="stop66" /><stop
         offset="1"
         style="stop-color:#6393B2"
         id="stop68" /></radialGradient><radialGradient
       inkscape:collect="always"
       xlink:href="#SVGID_9_"
       id="radialGradient3212"
       gradientUnits="userSpaceOnUse"
       gradientTransform="matrix(0.49574538,0,0,0.49574538,-47.863124,-34.985754)"
       cx="389.6846"
       cy="131.65581"
       r="119.7309" /><radialGradient
       id="SVGID_9_"
       cx="389.6846"
       cy="131.65581"
       r="119.7309"
       gradientTransform="matrix(1.4324,0,0,1.4324,-135.7264,-98.7094)"
       gradientUnits="userSpaceOnUse"><stop
         offset="0"
         style="stop-color:#B0CEE3"
         id="stop73" /><stop
         offset="1"
         style="stop-color:#6393B2"
         id="stop75" /></radialGradient><radialGradient
       inkscape:collect="always"
       xlink:href="#SVGID_10_"
       id="radialGradient3209"
       gradientUnits="userSpaceOnUse"
       gradientTransform="matrix(0.49574538,0,0,0.49574538,-47.863124,-34.985754)"
       cx="389.67291"
       cy="131.65669"
       r="119.7197" /><radialGradient
       id="SVGID_10_"
       cx="389.67291"
       cy="131.65669"
       r="119.7197"
       gradientTransform="matrix(1.4324,0,0,1.4324,-135.7264,-98.7094)"
       gradientUnits="userSpaceOnUse"><stop
         offset="0"
         style="stop-color:#B0CEE3"
         id="stop80" /><stop
         offset="1"
         style="stop-color:#6393B2"
         id="stop82" /></radialGradient><radialGradient
       inkscape:collect="always"
       xlink:href="#SVGID_11_"
       id="radialGradient3206"
       gradientUnits="userSpaceOnUse"
       gradientTransform="matrix(0.49574538,0,0,0.49574538,-47.863124,-34.985754)"
       cx="389.67191"
       cy="131.65871"
       r="119.7219" /><radialGradient
       id="SVGID_11_"
       cx="389.67191"
       cy="131.65871"
       r="119.7219"
       gradientTransform="matrix(1.4324,0,0,1.4324,-135.7264,-98.7094)"
       gradientUnits="userSpaceOnUse"><stop
         offset="0"
         style="stop-color:#B0CEE3"
         id="stop87" /><stop
         offset="1"
         style="stop-color:#6393B2"
         id="stop89" /></radialGradient><radialGradient
       inkscape:collect="always"
       xlink:href="#SVGID_12_"
       id="radialGradient3203"
       gradientUnits="userSpaceOnUse"
       gradientTransform="matrix(0.52474807,0,0,0.52474807,-55.853644,-37.582464)"
       cx="385.32321"
       cy="127.6528"
       r="51.998901" /><radialGradient
       id="SVGID_12_"
       cx="385.32321"
       cy="127.6528"
       r="51.998901"
       gradientTransform="matrix(1.5162,0,0,1.5162,-158.8141,-106.2123)"
       gradientUnits="userSpaceOnUse"><stop
         offset="0"
         style="stop-color:#F6FBFC"
         id="stop94" /><stop
         offset="1"
         style="stop-color:#B0CEE3"
         id="stop96" /></radialGradient><radialGradient
       inkscape:collect="always"
       xlink:href="#SVGID_13_"
       id="radialGradient3200"
       gradientUnits="userSpaceOnUse"
       gradientTransform="matrix(0.52474807,0,0,0.52474807,-55.853644,-37.582464)"
       cx="385.30179"
       cy="127.689"
       r="52.045799" /><radialGradient
       id="SVGID_13_"
       cx="385.30179"
       cy="127.689"
       r="52.045799"
       gradientTransform="matrix(1.5162,0,0,1.5162,-158.8141,-106.2123)"
       gradientUnits="userSpaceOnUse"><stop
         offset="0"
         style="stop-color:#F6FBFC"
         id="stop101" /><stop
         offset="1"
         style="stop-color:#B0CEE3"
         id="stop103" /></radialGradient><radialGradient
       inkscape:collect="always"
       xlink:href="#SVGID_14_"
       id="radialGradient3197"
       gradientUnits="userSpaceOnUse"
       gradientTransform="matrix(0.52474807,0,0,0.52474807,-55.853644,-37.582464)"
       cx="385.2822"
       cy="127.7251"
       r="52.1021" /><radialGradient
       id="SVGID_14_"
       cx="385.2822"
       cy="127.7251"
       r="52.1021"
       gradientTransform="matrix(1.5162,0,0,1.5162,-158.8141,-106.2123)"
       gradientUnits="userSpaceOnUse"><stop
         offset="0"
         style="stop-color:#F6FBFC"
         id="stop108" /><stop
         offset="1"
         style="stop-color:#B0CEE3"
         id="stop110" /></radialGradient><radialGradient
       inkscape:collect="always"
       xlink:href="#SVGID_15_"
       id="radialGradient3194"
       gradientUnits="userSpaceOnUse"
       gradientTransform="matrix(0.52474807,0,0,0.52474807,-55.853644,-37.582464)"
       cx="382.07129"
       cy="141.77879"
       r="30.3421" /><radialGradient
       id="SVGID_15_"
       cx="382.07129"
       cy="141.77879"
       r="30.3421"
       gradientTransform="matrix(1.5162,0,0,1.5162,-158.8141,-106.2123)"
       gradientUnits="userSpaceOnUse"><stop
         offset="0"
         style="stop-color:#6393B2"
         id="stop115" /><stop
         offset="1"
         style="stop-color:#B0CEE3"
         id="stop117" /></radialGradient><radialGradient
       inkscape:collect="always"
       xlink:href="#SVGID_16_"
       id="radialGradient3191"
       gradientUnits="userSpaceOnUse"
       gradientTransform="matrix(0.52474807,0,0,0.52474807,-55.853644,-37.582464)"
       cx="389.0723"
       cy="114.4009"
       r="32.347" /><radialGradient
       id="SVGID_16_"
       cx="389.0723"
       cy="114.4009"
       r="32.347"
       gradientTransform="matrix(1.5162,0,0,1.5162,-158.8141,-106.2123)"
       gradientUnits="userSpaceOnUse"><stop
         offset="0"
         style="stop-color:#6393B2"
         id="stop122" /><stop
         offset="1"
         style="stop-color:#B0CEE3"
         id="stop124" /></radialGradient></defs><sodipodi:namedview
     pagecolor="#000000"
     bordercolor="#666666"
     borderopacity="1"
     objecttolerance="10"
     gridtolerance="10"
     guidetolerance="10"
     inkscape:pageopacity="0"
     inkscape:pageshadow="2"
     inkscape:window-width="1920"
     inkscape:window-height="1011"
     id="namedview4305"
     showgrid="false"
     inkscape:zoom="4.1790011"
     inkscape:cx="128.04666"
     inkscape:cy="1.885097"
     inkscape:window-x="0"
     inkscape:window-y="27"
     inkscape:window-maximized="1"
     inkscape:current-layer="Layer_1" /><g
     id="g3239"
     transform="matrix(0.20947632,0,0,0.20947632,0.1546236,0.43674223)"><path
       id="path21"
       d="m 174.88984,14.098853 0,6.199586 c -0.0415,-0.06126 -0.0851,-0.119403 -0.12806,-0.180315 l 0,0.97737 c -2.80959,-4.473268 -7.78193,-7.448294 -13.45164,-7.449679 -5.40392,0.0014 -10.16825,2.704381 -13.03287,6.827055 0.14155,0.234652 0.97287,1.647755 1.31239,3.002714 l 0,0.008 c 2.19147,-4.248307 6.60659,-7.157229 11.72048,-7.165881 7.29013,0.01177 13.18826,5.910943 13.20245,13.203495 -0.0142,7.292551 -5.91232,13.191381 -13.20245,13.205225 -5.4811,-0.01038 -10.15925,-3.349846 -12.16037,-8.100335 -0.56309,-1.337309 -0.90884,-2.783982 -1.00367,-4.301259 -0.009,-0.112481 -0.007,-1.528353 6.9e-4,-1.638411 -0.10141,-1.989003 -0.57313,-3.880408 -1.34458,-5.612264 -0.004,0.0087 -0.009,0.018 -0.0131,0.02769 -1.2224,-2.781559 -3.21937,-5.14296 -5.71921,-6.81598 -0.0439,-0.03149 -0.0896,-0.05814 -0.13532,-0.08791 -0.22254,-0.146398 -0.45131,-0.28622 -0.6825,-0.42085 -0.10521,-0.06022 -0.20765,-0.120787 -0.31356,-0.179969 -0.21354,-0.118711 -0.43158,-0.230845 -0.65273,-0.341249 -0.20973,-0.101406 -0.42293,-0.200389 -0.63854,-0.294873 -0.091,-0.04015 -0.18205,-0.07925 -0.27411,-0.117325 -1.88483,-0.790134 -3.94894,-1.233134 -6.12102,-1.233134 -5.80504,0 -10.88051,3.116924 -13.64788,7.767739 l 0,-8.260577 -2.58602,0 0,45.851601 0.0332,0.03253 2.67497,-0.04118 -0.017,-21.272682 c 2.76737,4.650815 7.73728,7.671525 13.54267,7.672217 0.39454,0 0.78459,-0.01731 1.17118,-0.04465 0.0239,-0.0024 0.0474,-0.0035 0.0692,-0.0059 4.86643,-0.37655 9.113,-2.949415 11.76166,-6.725649 -0.18585,-0.309062 -0.96871,-1.670251 -1.31204,-3.000637 -2.20254,4.213697 -6.6014,7.095624 -11.69002,7.104277 -7.29013,-0.01246 -13.19104,-5.912674 -13.2035,-13.202457 0.0125,-7.294282 5.91337,-13.193458 13.2035,-13.205225 7.13923,0.01177 12.93942,5.665908 13.19242,12.745958 -0.006,0.165087 -0.0277,1.232788 -0.0377,1.373302 0.11975,1.952317 0.59528,3.810497 1.36015,5.515011 0.003,-0.0048 0.005,-0.0073 0.006,-0.01107 0.006,0.01419 0.0128,0.027 0.0194,0.04015 0.29348,0.665193 0.63196,1.304429 1.01371,1.91667 2.79678,4.520337 7.79438,7.535164 13.50459,7.535856 5.66972,0 10.64206,-2.976411 13.45165,-7.450717 l -0.0132,6.610746 2.7864,0.0073 0,-30.464314 -2.64554,0 z"
       style="fill:url(#radialGradient3236)"
       inkscape:connector-curvature="0" /><path
       id="path28"
       d="m 139.93813,15.597095 c 0.10625,0.05918 0.20869,0.119748 0.31356,0.179969"
       style="fill:url(#radialGradient3233)"
       inkscape:connector-curvature="0" /><path
       id="path35"
       d="m 140.93419,16.197914 c 0.0457,0.02976 0.0914,0.05641 0.13532,0.08791"
       style="fill:url(#radialGradient3230)"
       inkscape:connector-curvature="0" /><path
       id="path42"
       d="m 1.9112484,44.524343 -2.8002484,0 0,-45.06493027 2.8002484,0 0,45.06493027 z"
       style="fill:url(#radialGradient3227)"
       inkscape:connector-curvature="0" /><path
       id="path49"
       d="m 29.636511,44.524343 -2.580132,0 0,-18.032548 c 0,-3.041822 -0.860045,-5.539584 -2.580825,-7.490518 -1.804881,-2.054415 -4.208506,-3.081623 -7.20672,-3.081623 -2.979525,0 -5.349925,0.897769 -7.112583,2.695728 -1.7616194,1.797268 -2.6420831,4.190163 -2.6420831,7.175226 l 0,18.733735 -2.6448521,0 0,-30.493325 2.6448521,0 0,4.183933 c 2.2641485,-3.124192 5.5181261,-4.688884 9.7550121,-4.688884 3.986313,0 7.081434,1.333501 9.283285,3.998773 2.0558,2.452769 3.084046,5.716092 3.084046,9.785814 l 0,17.213689 z"
       style="fill:url(#radialGradient3224)"
       inkscape:connector-curvature="0" /><path
       id="path56"
       d="M 47.448597,2.5438045 44.176276,1.9135669 c -0.651003,-0.1242479 -1.302007,-0.187237 -1.950933,-0.187237 -2.39255,0 -4.20816,0.8804637 -5.445101,2.6424294 -1.090543,1.5321592 -1.635641,3.5360448 -1.635641,6.0106187 l 0,3.714629 9.786506,0 0,2.485649 -9.786506,0 0,27.944687 -2.581517,0 0,-34.42807 c 0,-3.1051577 0.788056,-5.6548339 2.361401,-7.6476444 1.698976,-2.18177803 4.069376,-3.27162876 7.110506,-3.27162876 0.86039,0 1.721472,0.0937915 2.581171,0.28275899 l 2.832089,0.62919931 0,2.45484636 z"
       style="fill:url(#radialGradient3221)"
       inkscape:connector-curvature="0" /><path
       id="path63"
       d="m 52.452427,5.5337125 c 0,1.2791643 -0.651349,1.9197847 -1.951625,1.9197847 -1.238325,0 -1.856796,-0.6406204 -1.856796,-1.9197847 0,-1.2383251 0.618471,-1.8578338 1.856796,-1.8578338 1.300276,0 1.951625,0.6195087 1.951625,1.8578338 z m -0.597705,38.9906305 -2.644852,0 0,-30.430336 2.644852,0 0,30.430336 z"
       style="fill:url(#radialGradient3218)"
       inkscape:connector-curvature="0" /><path
       id="path70"
       d="m 80.146195,44.524343 -2.580132,0 0,-18.032548 c 0,-3.041822 -0.861083,-5.539584 -2.581517,-7.490518 -1.804189,-2.054415 -4.205045,-3.083353 -7.207412,-3.083353 -2.97918,0 -5.348887,0.899499 -7.111545,2.697458 -1.762658,1.79796 -2.643121,4.190163 -2.643121,7.175226 l 0,18.733735 -2.644506,0 0,-30.493325 2.644506,0 0,4.183933 c 2.265186,-3.124192 5.517088,-4.688884 9.754666,-4.688884 3.986659,0 7.08178,1.333501 9.285362,3.998773 2.055453,2.452769 3.083699,5.716092 3.083699,9.785814 l 0,17.213689 z"
       style="fill:url(#radialGradient3215)"
       inkscape:connector-curvature="0" /><path
       id="path77"
       d="m 86.879458,5.5337125 c 0,1.2791643 -0.649618,1.9197847 -1.950933,1.9197847 -1.237287,0 -1.857141,-0.6406204 -1.857141,-1.9197847 0,-1.2383251 0.619854,-1.8578338 1.857141,-1.8578338 1.301315,0 1.950933,0.6195087 1.950933,1.8578338 z m -0.59805,38.9906305 -2.643122,0 0,-30.430336 2.643122,0 0,30.430336 z"
       style="fill:url(#radialGradient3212)"
       inkscape:connector-curvature="0" /><path
       id="path84"
       d="m 113.09402,36.719226 c 0,5.203872 -3.95586,7.805117 -11.86515,7.805117 l -3.083352,0 c -3.797692,0 -6.577175,-1.111655 -8.340179,-3.335311 l 2.360017,-1.416217 c 1.447712,1.510701 3.441561,2.266571 5.979816,2.266571 l 5.003138,0 c 4.86712,0 7.30224,-1.704514 7.30224,-5.113888 0,-2.925881 -2.31848,-5.029788 -6.95407,-6.312413 l -5.887754,-1.629758 c -5.056091,-1.405834 -7.583271,-3.997734 -7.583271,-7.775007 0,-4.742875 3.199987,-7.113966 9.598577,-7.113966 l 2.956688,0 1.73254,0 c 3.84061,0 6.60798,1.062855 8.30834,3.186835 l -2.36002,1.407219 c -1.38541,-1.407219 -3.46128,-2.108406 -6.23108,-2.108406 l -5.381415,0 c -3.98666,0 -5.979816,1.590649 -5.979816,4.770563 0,2.406393 2.056838,4.183933 6.168783,5.335735 l 6.136948,1.725626 c 5.41256,1.532505 8.11902,4.301951 8.11902,8.3073 z"
       style="fill:url(#radialGradient3209)"
       inkscape:connector-curvature="0" /><path
       id="path91"
       d="m 205.10421,44.563105 -2.58117,0 0,-18.033586 c 0,-3.040784 -0.8597,-5.539238 -2.57979,-7.490517 -1.8035,-2.055108 -4.20504,-3.082662 -7.20672,-3.082662 -2.97849,0 -5.34888,0.898807 -7.11085,2.695728 -1.76335,1.796922 -2.64416,4.190509 -2.64416,7.174188 l 0,18.736849 -2.64451,0 0,-30.495747 2.64451,0 0,4.185318 c 2.26588,-3.125577 5.51709,-4.689231 9.75501,-4.689231 3.98735,0 7.08074,1.333501 9.28467,3.997734 2.05511,2.454155 3.08301,5.716785 3.08301,9.785815 l 0,17.216111 z"
       style="fill:url(#radialGradient3206)"
       inkscape:connector-curvature="0" /><path
       id="path98"
       d="m 161.30979,42.726729 c -5.4804,-0.01038 -10.15925,-3.349846 -12.16037,-8.100335 -0.56205,-1.337308 -0.90884,-2.783982 -1.00298,-4.301259 -0.009,-0.112481 -0.008,-1.528353 10e-4,-1.63841 -0.10175,-1.989004 -0.57417,-3.880409 -1.34561,-5.612265 -0.003,0.0087 -0.008,0.018 -0.0125,0.02769 -1.2231,-2.781559 -3.21937,-5.14296 -5.7199,-6.81598 -0.0433,-0.03149 -0.089,-0.05814 -0.13532,-0.08791 -0.22254,-0.146398 -0.45131,-0.28622 -0.68181,-0.42085 -0.10521,-0.06022 -0.20766,-0.120787 -0.31322,-0.179969 -0.21388,-0.118711 -0.43261,-0.230845 -0.65204,-0.341249 -0.21146,-0.101406 -0.42396,-0.200389 -0.64027,-0.294872 -0.09,-0.04015 -0.18205,-0.07926 -0.27411,-0.117326 -1.88413,-0.790134 -3.94824,-1.233134 -6.12033,-1.233134 -5.61157,0 -10.53407,2.917228 -13.35612,7.313317 l 0,8.741994 0.15713,0 c -7e-4,-0.06057 -0.005,-0.121133 -0.005,-0.180661 0.0128,-7.294282 5.91337,-13.193458 13.2035,-13.205225 7.13923,0.01177 12.93873,5.665908 13.19242,12.745958 -0.006,0.165087 -0.0277,1.232788 -0.0377,1.373302 0.11906,1.952317 0.59528,3.810497 1.35946,5.515011 0.003,-0.0048 0.005,-0.0073 0.007,-0.01107 0.007,0.01419 0.0132,0.027 0.0194,0.04015 0.29348,0.665193 0.63231,1.304429 1.01301,1.91667 2.79679,4.520337 7.79543,7.535164 13.5046,7.535856 5.46933,0 10.28281,-2.773599 13.13912,-6.984874 l 0,-7.624456 c -0.64858,6.697616 -6.27572,11.926061 -13.13912,11.939905 z"
       style="fill:url(#radialGradient3203)"
       inkscape:connector-curvature="0" /><path
       id="path105"
       d="m 139.93916,15.597095 c 0.10591,0.05918 0.20835,0.119748 0.31322,0.179969"
       style="fill:url(#radialGradient3200)"
       inkscape:connector-curvature="0" /><path
       id="path112"
       d="m 140.93419,16.197914 c 0.0464,0.02976 0.0921,0.05641 0.13532,0.08791"
       style="fill:url(#radialGradient3197)"
       inkscape:connector-curvature="0" /><path
       id="path119"
       d="m 132.26937,45.35843 c 0.39213,0 0.78114,-0.01557 1.16807,-0.04395 0.0218,-0.0014 0.045,-0.0038 0.0675,-0.0055 4.85605,-0.375858 9.09328,-2.942493 11.73571,-6.711459 -0.18482,-0.307332 -0.96768,-1.665752 -1.30859,-2.993023 -2.19839,4.205391 -6.58582,7.079357 -11.66268,7.08801 -0.0793,0 -0.15713,-0.0048 -0.23534,-0.0066 l 0,2.664233 c 0.0789,0.0021 0.15609,0.0083 0.23534,0.0083 z"
       style="fill:url(#radialGradient3194)"
       inkscape:connector-curvature="0" /><path
       id="path126"
       d="m 161.28314,13.650661 c -5.38972,6.92e-4 -10.14333,2.697112 -13.00276,6.810788 0.14225,0.234652 0.97183,1.645332 1.31031,2.997522 l 0,0.0062 c 2.18767,-4.237578 6.59172,-7.139924 11.69245,-7.149269 0.0543,0 0.10798,0.0038 0.16128,0.0045 l 0,-2.664926 c -0.0543,-3.46e-4 -0.10694,-0.0048 -0.16128,-0.0048 z"
       style="fill:url(#radialGradient3191)"
       inkscape:connector-curvature="0" /></g><text
     xml:space="preserve"
     style="font-style:normal;font-variant:normal;font-weight:normal;font-stretch:normal;font-size:50px;line-height:125%;font-family:'Titillium Web';-inkscape-font-specification:'Titillium Web, Normal';text-align:start;letter-spacing:0px;word-spacing:0px;writing-mode:lr-tb;text-anchor:start;fill:#ffffff;fill-opacity:1;stroke:none;stroke-width:1px;stroke-linecap:butt;stroke-linejoin:miter;stroke-opacity:1"
     x="45.140942"
     y="9.77666"
     id="text5118"
     sodipodi:linespacing="125%"><tspan
       sodipodi:role="line"
       id="tspan5120"
       x="45.140942"
       y="9.77666"
       style="font-style:normal;font-variant:normal;font-weight:normal;font-stretch:normal;font-size:8.75px;font-family:'Open Sans';-inkscape-font-specification:'Open Sans, Normal';text-anchor:start;text-align:start;writing-mode:lr;line-height:125%">SERVER MANAGEMENT CONSOLE</tspan></text>
</svg>