<?xml version="1.0" encoding="UTF-8" standalone="no"?>
<!-- Generator: Adobe Illustrator 16.0.4, SVG Export Plug-In . SVG Version: 6.00 Build 0)  -->

<svg
   xmlns:dc="http://purl.org/dc/elements/1.1/"
   xmlns:cc="http://creativecommons.org/ns#"
   xmlns:rdf="http://www.w3.org/1999/02/22-rdf-syntax-ns#"
   xmlns:svg="http://www.w3.org/2000/svg"
   xmlns="http://www.w3.org/2000/svg"
   xmlns:sodipodi="http://sodipodi.sourceforge.net/DTD/sodipodi-0.dtd"
   xmlns:inkscape="http://www.inkscape.org/namespaces/inkscape"
   version="1.1"
   id="Layer_1"
   x="0px"
   y="0px"
   width="1920"
   height="1080"
   viewBox="0 0 1920 1080"
   enable-background="new 0 0 1018.449 355.482"
   xml:space="preserve"
   inkscape:version="0.91 r13725"
   sodipodi:docname="infinispan_login_background.svg"><metadata
     id="metadata4389"><rdf:RDF><cc:Work
         rdf:about=""><dc:format>image/svg+xml</dc:format><dc:type
           rdf:resource="http://purl.org/dc/dcmitype/StillImage" /><dc:title></dc:title></cc:Work></rdf:RDF></metadata><defs
     id="defs4387" /><sodipodi:namedview
     pagecolor="#030303"
     bordercolor="#666666"
     borderopacity="1"
     objecttolerance="10"
     gridtolerance="10"
     guidetolerance="10"
     inkscape:pageopacity="0"
     inkscape:pageshadow="2"
     inkscape:window-width="1920"
     inkscape:window-height="1011"
     id="namedview4385"
     showgrid="false"
     inkscape:zoom="0.27689163"
     inkscape:cx="622.14705"
     inkscape:cy="177.741"
     inkscape:window-x="0"
     inkscape:window-y="27"
     inkscape:window-maximized="1"
     inkscape:current-layer="g4226" /><g
     id="g4226"
     transform="translate(0,724.518)"><g
       id="g4374"
       transform="matrix(0,7.1656483,-7.1656483,0,2306.5376,-5273.0382)"><radialGradient
         id="SVGID_17_"
         cx="710.20563"
         cy="187.88091"
         r="148.3266"
         gradientUnits="userSpaceOnUse"><stop
           offset="0"
           style="stop-color:#FFEEA0;stop-opacity:0.8"
           id="stop4377" /><stop
           offset="0.5027"
           style="stop-color:#FFD400"
           id="stop4379" /><stop
           offset="0.9748"
           style="stop-color:#FFCD00"
           id="stop4381" /></radialGradient><path
         d="m 749.247,194.233 c -1.015,0.607 -7.123,4.207 -13.017,5.668 18.365,9.482 30.945,28.567 30.981,50.674 -0.034,19.208 -9.527,36.17 -24.066,46.512 0.013,-0.074 0.005,-0.036 -0.005,0.005 -14.49,10.391 -32.948,13.111 -50.707,7.635 -7.381,-2.45 -14.244,-6.363 -20.1,-11.587 0.003,0.021 0.003,0.044 0.006,0.062 -8.51,-7.553 -14.894,-17.353 -17.477,-28.63 -1.025,-4.47 -1.837,-9.403 -1.826,-13.997 0.044,-23.693 14.48,-43.92 35.022,-52.57 5.778,-2.434 12.028,-3.93 18.592,-4.338 0.487,-0.04 6.607,-0.035 7.082,0.005 8.6,-0.444 16.778,-2.48 24.269,-5.814 -0.041,-0.018 -0.079,-0.041 -0.12,-0.058 12.02,-5.286 22.234,-13.917 29.466,-24.729 0.134,-0.19 0.254,-0.385 0.383,-0.585 0.632,-0.96 1.234,-1.949 1.815,-2.945 0.262,-0.457 0.526,-0.9 0.78,-1.356 0.514,-0.927 0.996,-1.87 1.469,-2.823 0.444,-0.908 0.868,-1.83 1.279,-2.759 0.172,-0.396 0.344,-0.79 0.508,-1.189 3.416,-8.148 5.336,-17.072 5.336,-26.462 0,-16.057 -5.538,-30.806 -14.777,-42.491 -0.647,-0.836 -1.317,-1.645 -1.995,-2.441 -0.052,-0.058 -0.098,-0.116 -0.146,-0.175 -6.687,-7.788 -14.829,-13.735 -24.062,-17.7 l 0.014,-0.032 c -0.313,-0.138 -0.611,-0.297 -0.925,-0.429 -1.559,-0.661 -3.138,-1.254 -4.723,-1.795 -0.095,-0.027 -0.189,0.191 -0.277,0.161 -19.626,-6.574 -40.341,-3.149 -57.142,6.851 l -0.069,0 c -0.165,0 -0.318,-0.041 -0.48,0.057 -0.113,0.066 -0.233,0.004 -0.347,0.07 0,0.005 0.003,-0.044 0.003,-0.039 -19.627,12.065 -32.337,33.249 -32.343,57.995 0,1.707 0.074,3.379 0.195,5.048 0.011,0.103 0.013,0.198 0.023,0.29 1.625,21.043 12.752,39.397 29.075,50.847 1.338,-0.802 7.227,-4.19 12.974,-5.674 -18.214,-9.523 -30.676,-28.542 -30.717,-50.542 0.033,-17.803 8.188,-33.688 20.958,-44.152 0,0.021 -0.002,0.038 -0.005,0.056 5.821,-4.788 12.523,-8.357 19.67,-10.541 0.437,-0.133 0.873,-0.253 1.314,-0.377 0.534,-0.146 1.066,-0.282 1.603,-0.416 4.319,-1.06 8.831,-1.635 13.479,-1.648 1.12,0 2.237,0.04 3.352,0.105 0.38,0.023 0.76,0.059 1.14,0.09 0.802,0.062 1.6,0.137 2.398,0.233 0.372,0.046 0.745,0.09 1.117,0.144 0.96,0.136 1.918,0.292 2.871,0.478 0.161,0.031 0.331,0.054 0.495,0.089 1.138,0.229 2.263,0.497 3.38,0.792 0.257,0.072 0.508,0.146 0.763,0.222 0.859,0.24 1.71,0.502 2.555,0.779 0.331,0.11 0.66,0.222 0.988,0.337 0.853,0.302 1.697,0.625 2.532,0.967 0.344,0.136 0.688,0.279 1.027,0.425 0.832,0.353 1.656,0.736 2.47,1.134 0.524,0.257 1.04,0.524 1.552,0.793 0.41,0.215 0.821,0.443 1.227,0.669 0.599,0.333 1.197,0.669 1.78,1.023 0.033,0.018 0.063,0.04 0.097,0.062 1.475,0.9 2.902,1.865 4.283,2.889 0.088,0.067 0.173,0.129 0.257,0.191 0.696,0.522 1.38,1.059 2.05,1.608 0.038,0.031 0.071,0.062 0.11,0.093 1.343,1.112 2.632,2.287 3.867,3.515 0.041,0.044 0.085,0.079 0.126,0.124 0.516,0.514 1.014,1.045 1.51,1.582 0.315,0.342 0.626,0.691 0.935,1.042 0.38,0.434 0.765,0.864 1.133,1.307 0.695,0.846 1.379,1.714 2.033,2.61 0.115,0.159 0.224,0.318 0.339,0.478 1.481,2.075 2.851,4.263 4.073,6.582 0.159,0.3 0.303,0.606 0.451,0.917 l 0.036,-0.018 c 3.947,7.75 6.191,16.519 6.207,25.817 -0.049,30.866 -24.495,55.942 -55.102,57.036 -0.716,-0.022 -5.331,-0.12 -5.939,-0.163 -8.443,0.514 -16.478,2.573 -23.801,5.906 -0.057,0.026 -0.111,0.058 -0.17,0.085 -2.873,1.266 -5.639,2.733 -8.284,4.377 -19.546,12.092 -32.581,33.702 -32.581,58.384 0,24.516 12.865,46.016 32.214,58.161 0.306,0.16 5.197,2.707 5.501,2.857 1.512,0.767 3.045,1.468 4.591,2.104 0.093,0.036 0.188,0.077 0.274,0.111 2.435,1.002 4.967,1.817 7.568,2.459 11.996,3.487 24.975,3.934 37.673,0.244 0.09,-0.025 0.185,-0.053 0.279,-0.08 1.607,-0.478 3.208,-1.006 4.792,-1.604 0.321,-0.118 0.624,-0.265 0.939,-0.389 l -0.01,-0.032 c 10.525,-4.022 19.774,-10.616 27.231,-19.559 0.021,-0.021 0.042,-0.043 0.062,-0.065 0.645,-0.775 1.271,-1.574 1.89,-2.384 0.506,-0.656 0.996,-1.321 1.479,-1.999 0.206,-0.288 0.43,-0.553 0.632,-0.851 0.054,-0.079 0.11,-0.159 0.167,-0.238 0.134,-0.191 0.247,-0.399 0.375,-0.595 0.704,-1.046 1.371,-2.118 2.016,-3.208 0.098,-0.163 0.208,-0.315 0.301,-0.479 0.028,-0.043 0.051,-0.09 0.074,-0.133 5.853,-10.1 9.216,-21.814 9.219,-34.322 -0.005,-23.363 -11.694,-43.959 -29.514,-56.344 z"
         id="path4383"
         inkscape:connector-curvature="0"
         style="fill:url(#SVGID_17_)" /></g></g></svg>