<?xml version="1.0" standalone="no"?>
<!DOCTYPE svg PUBLIC "-//W3C//DTD SVG 20010904//EN"
 "http://www.w3.org/TR/2001/REC-SVG-20010904/DTD/svg10.dtd">
<svg version="1.0" xmlns="http://www.w3.org/2000/svg"
 width="1600.000000pt" height="1600.000000pt" viewBox="0 0 1600.000000 1600.000000"
 preserveAspectRatio="xMidYMid meet">
<metadata>
Created by potrace 1.11, written by Peter Selinger 2001-2013
</metadata>
<g transform="translate(0.000000,1600.000000) scale(0.100000,-0.100000)"
fill="#000000" stroke="none">
<path d="M48 15922 l-48 -3 0 -1063 0 -1062 148 2 c479 9 734 6 942 -11 25 -2
83 -7 130 -10 47 -4 92 -9 101 -10 9 -2 40 -6 70 -9 53 -6 86 -11 164 -21 581
-77 1274 -279 1825 -532 303 -139 686 -353 915 -512 177 -123 233 -164 346
-252 992 -771 1703 -1814 2027 -2974 44 -155 93 -372 117 -510 8 -49 17 -101
20 -115 6 -28 10 -60 20 -140 3 -30 10 -89 15 -130 18 -145 25 -297 21 -485
-7 -356 -6 -630 2 -710 4 -44 10 -102 12 -130 3 -27 7 -63 9 -80 3 -16 8 -52
11 -80 4 -27 9 -62 11 -76 2 -15 6 -47 9 -70 3 -24 10 -70 16 -101 5 -32 12
-70 15 -85 3 -16 7 -37 8 -48 2 -11 7 -31 10 -45 3 -14 8 -36 10 -50 11 -70
21 -117 53 -245 19 -77 38 -158 43 -180 21 -106 212 -701 249 -780 6 -11 40
-94 76 -185 70 -174 292 -632 394 -812 34 -59 61 -112 61 -118 0 -5 4 -10 8
-10 4 0 13 -12 19 -27 7 -16 17 -35 22 -43 6 -8 48 -76 94 -150 46 -74 101
-162 123 -194 21 -32 46 -69 54 -82 113 -170 434 -593 512 -675 7 -8 36 -41
63 -74 28 -33 59 -69 70 -81 11 -12 63 -68 115 -125 387 -420 858 -832 1335
-1166 191 -133 504 -333 631 -402 21 -12 55 -31 74 -42 210 -126 670 -349 975
-473 77 -32 149 -61 160 -66 100 -44 603 -213 785 -264 326 -91 646 -165 915
-211 84 -15 147 -25 185 -30 25 -3 52 -8 60 -10 8 -2 35 -7 60 -10 41 -5 82
-10 150 -20 14 -2 50 -6 80 -10 30 -3 71 -8 90 -10 19 -2 67 -7 105 -10 39 -3
86 -8 105 -10 19 -2 78 -7 132 -10 53 -4 120 -9 150 -12 29 -2 284 -6 566 -8
l512 -3 0 1064 0 1065 -407 -2 c-363 -2 -511 2 -663 16 -25 2 -74 7 -110 10
-36 3 -81 8 -100 10 -19 2 -60 7 -90 10 -48 5 -124 16 -210 30 -14 2 -45 7
-70 10 -204 28 -819 175 -935 224 -11 5 -45 16 -75 26 -71 22 -219 74 -245 85
-11 5 -85 34 -165 66 -424 167 -857 402 -1280 695 -157 109 -391 294 -559 443
-88 79 -451 444 -511 516 -30 36 -57 67 -61 70 -27 23 -250 315 -359 470 -82
117 -221 339 -298 480 -35 63 -182 357 -205 410 -9 19 -28 62 -42 95 -106 236
-253 683 -301 915 -3 14 -9 41 -14 60 -5 19 -21 97 -35 172 -30 163 -42 247
-60 408 -3 30 -8 73 -11 95 -3 22 -7 238 -8 480 -3 394 -8 548 -21 656 -2 19
-7 72 -10 119 -4 47 -9 87 -10 91 -2 3 -7 39 -11 80 -3 40 -8 77 -10 80 -2 3
-6 34 -10 70 -3 35 -8 67 -10 70 -3 5 -8 33 -31 174 -2 17 -14 73 -24 125 -11
52 -22 106 -25 120 -3 14 -11 50 -19 81 -8 30 -16 64 -18 75 -6 28 -15 65 -54
204 -61 221 -91 320 -113 375 -5 11 -21 58 -36 105 -26 83 -166 441 -206 530
-12 25 -43 93 -69 152 -26 59 -65 138 -87 175 -22 37 -50 88 -64 113 -145 261
-371 645 -453 770 -132 199 -376 529 -460 624 -6 6 -28 33 -50 61 -22 27 -44
55 -50 61 -5 6 -39 44 -75 85 -36 40 -89 101 -119 134 -85 94 -487 492 -582
575 -47 41 -101 89 -120 105 -33 30 -160 135 -189 158 -8 7 -38 30 -65 53 -70
57 -315 241 -405 304 -135 94 -447 298 -480 313 -8 4 -28 15 -45 26 -195 120
-650 360 -860 453 -114 51 -365 158 -371 158 -3 0 -20 6 -37 14 -207 93 -741
268 -1102 361 -99 26 -187 48 -195 50 -293 65 -708 142 -859 159 -370 44 -432
51 -606 61 -60 4 -126 9 -145 12 -39 5 -968 10 -1042 5z"/>
<path d="M15059 15906 c-2 -2 -65 -7 -139 -10 -74 -4 -155 -9 -180 -11 -68 -6
-170 -15 -215 -20 -22 -3 -65 -7 -95 -10 -30 -3 -66 -7 -80 -9 -36 -5 -129
-16 -175 -22 -22 -3 -78 -11 -125 -19 -81 -13 -129 -21 -195 -31 -110 -18
-464 -94 -645 -139 -797 -199 -1516 -486 -2255 -900 -285 -159 -627 -384 -935
-614 -107 -80 -427 -339 -468 -378 -10 -10 -51 -47 -92 -83 -85 -74 -508 -494
-589 -585 -30 -33 -66 -73 -81 -90 -48 -54 -235 -278 -286 -345 -196 -253
-275 -362 -271 -373 2 -7 52 -84 109 -172 218 -333 423 -718 539 -1015 16 -41
34 -84 39 -95 25 -54 267 -907 295 -1038 2 -9 17 -65 34 -125 16 -59 35 -127
41 -151 l12 -44 23 39 c13 21 35 59 48 84 13 25 75 135 137 245 62 110 131
233 154 274 22 40 50 90 61 110 35 61 80 142 130 231 75 135 193 327 264 430
115 169 178 257 191 270 3 3 19 23 35 45 16 22 84 105 151 185 460 548 1010
1009 1634 1368 136 79 571 297 670 337 25 10 59 24 76 31 158 69 552 207 709
249 100 27 289 77 305 80 8 2 45 10 83 19 37 9 81 18 97 21 17 3 61 12 98 19
37 8 85 17 107 21 136 21 298 45 345 50 30 3 66 8 80 10 29 5 133 15 205 20
28 2 106 7 175 11 69 5 304 8 523 6 l397 -2 -2 1063 -3 1062 -466 2 c-257 1
-468 1 -470 -1z"/>
<path d="M6694 6282 c-11 -20 -38 -68 -59 -107 -21 -38 -46 -82 -57 -97 -10
-14 -18 -28 -18 -31 0 -4 -24 -47 -130 -232 -9 -16 -32 -57 -50 -90 -18 -33
-57 -100 -85 -150 -28 -49 -65 -115 -82 -145 -102 -185 -234 -399 -345 -558
-59 -85 -197 -272 -208 -282 -3 -3 -24 -27 -45 -55 -185 -233 -467 -526 -705
-735 -35 -30 -68 -59 -74 -65 -6 -5 -36 -30 -66 -54 -30 -25 -62 -51 -70 -58
-71 -66 -458 -338 -635 -447 -33 -21 -67 -41 -75 -47 -214 -132 -597 -321
-905 -446 -220 -90 -723 -254 -846 -277 -13 -2 -44 -9 -69 -16 -25 -7 -54 -14
-64 -16 -11 -2 -65 -13 -120 -25 -139 -29 -137 -28 -171 -34 -16 -3 -43 -7
-60 -10 -16 -3 -59 -10 -95 -16 -36 -5 -76 -12 -90 -14 -21 -4 -112 -16 -225
-30 -305 -36 -575 -45 -1160 -35 l-180 3 -3 -1062 c-2 -845 0 -1061 10 -1062
43 -2 476 -11 588 -12 168 0 482 12 695 28 173 12 213 16 285 25 41 5 100 12
130 15 30 3 66 8 80 10 14 3 44 7 68 10 121 14 128 15 396 61 16 3 32 6 35 8
3 2 26 7 51 10 101 14 478 100 680 157 621 172 1103 356 1650 629 628 313
1219 703 1740 1148 91 78 153 133 200 178 25 23 56 52 70 64 98 84 439 435
591 610 41 47 76 87 79 90 6 6 62 75 147 180 110 137 293 382 293 392 0 6 -26
49 -58 97 -167 248 -291 461 -431 746 -167 336 -220 483 -361 990 -49 176 -94
334 -99 350 -4 17 -32 116 -61 220 -68 247 -61 232 -86 187z"/>
</g>
</svg>
